<svg width="1315" height="1011" viewBox="0 0 1315 1011" fill="none" xmlns="http://www.w3.org/2000/svg">
<path d="M274.671 798.6L266.271 845.7H181.371L174.771 883.5H238.071L230.571 927.9H166.971L152.271 1011H93.1709L130.371 798.6H274.671Z" fill="#DFF2D4"/>
<path d="M357.928 798.6L320.728 1011H261.628L298.828 798.6H357.928Z" fill="#DFF2D4"/>
<path d="M550.427 798.6L542.027 845.7H485.027L455.927 1011H397.127L425.927 845.7H369.527L377.627 798.6H550.427Z" fill="#DFF2D4"/>
<path d="M723.724 798.9L716.524 839.7H658.924L628.924 1011H577.324L607.324 839.7H550.324L557.524 798.9H723.724Z" fill="#DFF2D4"/>
<path d="M772.948 821.7L760.347 894H840.747L836.847 915H756.448L743.547 988.8H832.948L829.047 1011H712.347L749.547 799.5H866.247L862.347 821.7H772.948Z" fill="#DFF2D4"/>
<path d="M970.905 799.5C991.705 799.5 1007.21 803.9 1017.41 812.7C1027.81 821.5 1033.01 833.5 1033.01 848.7C1033.01 853.7 1032.61 858.3 1031.81 862.5C1029.01 879.5 1021.81 893.3 1010.21 903.9C998.605 914.5 983.505 921.1 964.905 923.7L1007.21 1011H976.305L936.105 924.6H906.705L891.405 1011H864.105L901.305 799.5H970.905ZM1003.91 864C1004.51 860.4 1004.81 857.1 1004.81 854.1C1004.81 833.5 991.405 823.2 964.605 823.2H924.705L910.305 904.8H950.205C981.005 904.8 998.905 891.2 1003.91 864Z" fill="#DFF2D4"/>
<path fill-rule="evenodd" clip-rule="evenodd" d="M734.243 66H1314.06L1268.68 258H954.855L942.284 311H1192.38L1147 503H923.582C921.654 492.142 918.572 479.723 913.521 466.676C909.594 456.534 904.457 446.011 897.685 435.679C892.606 427.944 886.608 420.312 879.559 413.136C868.992 402.363 856.002 392.602 840.604 384.985C840.459 384.912 840.298 384.839 840.138 384.766L890.14 279.153L892.475 273.562C902.443 249.624 891.219 222.105 867.415 212.081C864.073 210.672 860.658 209.703 857.229 209.116C854.295 208.015 851.273 207.385 848.252 207.194C847.537 207.048 846.778 206.901 845.946 206.739C839.101 205.448 828.608 203.98 815.517 203.979C798.076 203.965 775.862 206.607 751.211 215.545C731.55 222.65 710.431 233.789 689.099 250.354L694.277 229.144H380.873L361 310.768H673.082C684.788 321.192 702.678 321.324 714.563 310.546C735.653 291.437 755.225 280.695 772.33 274.472C778.971 272.065 785.246 270.362 791.113 269.158L747.767 361.137C747.737 361.239 747.709 361.372 747.665 361.562C747.548 362.106 747.359 363.016 747.169 364.219C746.789 366.64 746.381 370.236 746.381 374.536C746.381 379.379 746.892 385.074 748.453 390.974C750.015 396.888 752.569 402.98 756.743 408.953C759.531 412.93 763.048 416.879 767.587 420.68C772.564 424.848 778.825 428.855 786.735 432.45C794.412 433.977 801.126 436.045 807.065 438.467C813.94 441.285 819.778 444.602 824.886 448.286C833.803 454.729 840.59 462.317 846.02 470.683C850.077 476.949 853.317 483.656 855.856 490.378C859.666 500.461 861.884 510.618 863.066 519.042C864.263 527.451 864.438 534.1 864.438 537.152C864.438 537.915 864.424 538.444 864.424 538.737L864.409 538.973H864.424C864.278 542.216 864.628 545.357 865.401 548.351H707.485C701.034 548.351 695.81 553.605 695.81 560.092C695.81 566.579 701.034 571.833 707.485 571.833H880.418L880.378 572H1192.38L1147 764H565.558L628.512 503.293H314.944L268.906 697.899H0L167.409 0H750.212L734.243 66ZM716.834 404.224C713.827 406.557 710.748 408.553 707.552 410.285C700.853 413.91 693.687 416.391 686.302 417.946C678.931 419.502 671.371 420.134 664.249 420.134C654.12 420.134 644.882 418.857 638.445 417.595C635.22 416.964 632.71 416.347 631.104 415.921C630.302 415.715 629.747 415.539 629.426 415.451L629.163 415.378H629.148C612.831 410.168 595.361 419.18 590.078 435.588C584.78 452.04 593.771 469.696 610.132 475.023C611.096 475.332 617.035 477.225 626.521 479.089C636.008 480.938 649.027 482.772 664.234 482.787C673.75 482.787 684.112 482.068 695 480.072C703.158 478.575 711.595 476.374 720.104 473.175C731.984 468.728 744.01 462.314 755.292 453.479C750.272 450.22 745.732 446.757 741.704 443.073C732.349 434.532 725.694 425.006 721.242 415.569C719.432 411.739 718.002 407.951 716.834 404.224ZM869.704 372.27C889.174 390.16 913.649 402.313 940.489 406.628C957.477 409.358 973.444 397.734 976.159 380.65C978.888 363.567 967.314 347.51 950.326 344.78C928.93 341.346 910.278 328.739 898.908 310.584L869.704 372.27ZM892.773 132C872.252 132 855.614 148.729 855.614 169.366C855.614 190.003 872.251 206.733 892.773 206.733C913.295 206.733 929.932 190.003 929.932 169.366C929.931 148.73 913.295 132 892.773 132Z" fill="#6BF178"/>
<path d="M950.326 344.78C928.93 341.346 910.278 328.739 898.908 310.584L869.704 372.27C889.174 390.16 913.649 402.313 940.489 406.628C957.477 409.358 973.444 397.734 976.159 380.65C978.888 363.567 967.314 347.51 950.326 344.78Z" fill="#1E1E1E"/>
<path d="M720.104 473.175C731.984 468.728 744.01 462.314 755.292 453.479C750.272 450.22 745.732 446.757 741.704 443.073C732.349 434.532 725.694 425.006 721.242 415.569C719.432 411.739 718.002 407.951 716.834 404.224C713.827 406.557 710.748 408.553 707.552 410.285C700.853 413.91 693.687 416.391 686.302 417.946C678.931 419.502 671.371 420.134 664.249 420.134C654.12 420.134 644.882 418.857 638.445 417.595C635.22 416.964 632.71 416.347 631.104 415.921C630.302 415.715 629.747 415.539 629.426 415.451L629.163 415.378H629.148C612.831 410.168 595.361 419.18 590.078 435.588C584.78 452.04 593.771 469.696 610.132 475.023C611.096 475.332 617.035 477.225 626.521 479.089C636.008 480.938 649.027 482.772 664.234 482.787C673.75 482.787 684.112 482.068 695 480.072C703.158 478.575 711.595 476.374 720.104 473.175Z" fill="#1E1E1E"/>
<path d="M956.415 548.336H925.649C926.174 546.296 926.51 544.182 926.627 541.996C926.656 541.511 926.729 539.824 926.729 537.138C926.729 530.841 926.335 519.056 923.795 504.204C921.883 493.064 918.76 480.208 913.521 466.676C909.594 456.534 904.457 446.011 897.685 435.679C892.606 427.944 886.608 420.312 879.559 413.136C868.992 402.363 856.002 392.602 840.604 384.985C840.459 384.912 840.298 384.839 840.138 384.766L890.14 279.153L892.475 273.562C902.443 249.624 891.219 222.105 867.415 212.081C864.073 210.672 860.658 209.703 857.229 209.116C854.295 208.015 851.273 207.385 848.252 207.194C847.537 207.048 846.778 206.901 845.946 206.739C839.101 205.448 828.608 203.98 815.517 203.979C798.076 203.965 775.862 206.607 751.211 215.545C726.56 224.454 699.619 239.703 672.837 264.036C660.067 275.616 659.06 295.429 670.575 308.271C682.09 321.113 701.793 322.126 714.563 310.546C735.653 291.437 755.225 280.695 772.33 274.472C778.971 272.065 785.246 270.362 791.113 269.158L747.767 361.137C747.737 361.239 747.709 361.372 747.665 361.562C747.548 362.106 747.359 363.016 747.169 364.219C746.789 366.64 746.381 370.236 746.381 374.536C746.381 379.379 746.892 385.074 748.453 390.974C750.015 396.888 752.569 402.98 756.743 408.953C759.531 412.93 763.048 416.879 767.587 420.68C772.564 424.848 778.825 428.855 786.735 432.45C794.412 433.977 801.126 436.045 807.065 438.467C813.94 441.285 819.778 444.602 824.886 448.286C833.803 454.729 840.59 462.317 846.02 470.683C850.077 476.949 853.317 483.656 855.856 490.378C859.666 500.461 861.884 510.618 863.066 519.042C864.263 527.451 864.438 534.1 864.438 537.152C864.438 537.915 864.424 538.444 864.424 538.737L864.409 538.973H864.424C864.278 542.216 864.628 545.357 865.401 548.351H707.485C701.034 548.351 695.81 553.605 695.81 560.092C695.81 566.579 701.034 571.833 707.485 571.833L956.429 571.833C962.88 571.833 968.105 566.579 968.105 560.092C968.09 553.59 962.866 548.336 956.415 548.336Z" fill="#1E1E1E"/>
<path d="M892.773 206.733C913.295 206.733 929.932 190.003 929.932 169.366C929.931 148.73 913.295 132 892.773 132C872.252 132 855.614 148.729 855.614 169.366C855.614 190.003 872.251 206.733 892.773 206.733Z" fill="#1E1E1E"/>
</svg>

